<?xml version="1.0" encoding="UTF-8" standalone="no"?>
<!DOCTYPE svg PUBLIC "-//W3C//DTD SVG 1.1//EN" "http://www.w3.org/Graphics/SVG/1.1/DTD/svg11.dtd">
<!-- Oprettet af Microsoft Visio, SVG-eksport basisprofil og API-profiler.svg Side-1 -->
<svg xmlns="http://www.w3.org/2000/svg" xmlns:xlink="http://www.w3.org/1999/xlink" xmlns:ev="http://www.w3.org/2001/xml-events"
		xmlns:v="http://schemas.microsoft.com/visio/2003/SVGExtensions/" width="7.19465in" height="4.13719in"
		viewBox="0 0 518.015 297.878" xml:space="preserve" color-interpolation-filters="sRGB" class="st19">
	<v:documentProperties v:langID="1030" v:metric="true" v:viewMarkup="false"/>

	<style type="text/css">
	<![CDATA[
		.st1 {fill:#ffffff;stroke:#000000;stroke-linecap:round;stroke-linejoin:round;stroke-width:0.24}
		.st2 {fill:#99ffcc;stroke:#000000;stroke-linecap:round;stroke-linejoin:round;stroke-width:0.24}
		.st3 {fill:#bfbfbf;stroke:#bfbfbf;stroke-linecap:round;stroke-linejoin:round;stroke-width:0.24}
		.st4 {stroke:#000000;stroke-linecap:round;stroke-linejoin:round;stroke-width:0.24}
		.st5 {marker-end:url(#mrkr12-42);stroke:#000000;stroke-linecap:round;stroke-linejoin:round;stroke-width:0.24}
		.st6 {fill:#000000;fill-opacity:1;stroke:#000000;stroke-opacity:1;stroke-width:0.14285714285714}
		.st7 {marker-end:url(#mrkr12-53);stroke:#bfbfbf;stroke-linecap:round;stroke-linejoin:round;stroke-width:0.24}
		.st8 {fill:#bfbfbf;fill-opacity:1;stroke:#bfbfbf;stroke-opacity:1;stroke-width:0.14285714285714}
		.st9 {stroke:#bfbfbf;stroke-linecap:round;stroke-linejoin:round;stroke-width:0.24}
		.st10 {fill:#ccff99;stroke:#000000;stroke-linecap:round;stroke-linejoin:round;stroke-width:0.24}
		.st11 {fill:#ffff99;stroke:#000000;stroke-linecap:round;stroke-linejoin:round;stroke-width:0.24}
		.st12 {fill:#ffcc66;stroke:#000000;stroke-linecap:round;stroke-linejoin:round;stroke-width:0.24}
		.st13 {marker-end:url(#mrkr14-447);stroke:#000000;stroke-linecap:round;stroke-linejoin:round;stroke-width:0.239976}
		.st14 {fill:#000000;fill-opacity:1;stroke:#000000;stroke-opacity:1;stroke-width:0.057137469356968}
		.st15 {stroke:#000000;stroke-dasharray:0,2.16;stroke-linecap:round;stroke-linejoin:round;stroke-width:0.72}
		.st16 {visibility:visible}
		.st17 {fill:#000000;fill-opacity:0.4;filter:url(#filter_2.6666667461395);stroke:#000000;stroke-linecap:round;stroke-linejoin:round;stroke-opacity:0.4}
		.st18 {fill:#000000;font-family:Arial;font-size:0.666664em}
		.st19 {fill:none;fill-rule:evenodd;font-size:12px;overflow:visible;stroke-linecap:square;stroke-miterlimit:3}
	]]>
	</style>

	<defs id="Markers">
		<g id="lend12">
			<path d="M 3 1 L 0 0 L 3 -1 " style="stroke-linecap:round;stroke-linejoin:round;fill:none"/>
		</g>
		<marker id="mrkr12-42" class="st6" v:arrowType="12" v:arrowSize="0" orient="auto" markerUnits="strokeWidth"
				overflow="visible">
			<use xlink:href="#lend12" transform="scale(-7,-7) "/>
		</marker>
		<marker id="mrkr12-53" class="st8" v:arrowType="12" v:arrowSize="0" orient="auto" markerUnits="strokeWidth"
				overflow="visible">
			<use xlink:href="#lend12" transform="scale(-7,-7) "/>
		</marker>
		<g id="lend14">
			<path d="M 3 -1 L 0 0 L 3 1 L 3 -1 " style="stroke-linecap:round;stroke-linejoin:round;fill:none"/>
		</g>
		<marker id="mrkr14-447" class="st14" v:arrowType="14" v:arrowSize="4" v:setback="51.0048" refX="-51.004800480048"
				orient="auto" markerUnits="strokeWidth" overflow="visible">
			<use xlink:href="#lend14" transform="scale(-17.501650165017,-17.501650165017) "/>
		</marker>
	</defs>
	<defs id="Filters">
		<filter id="filter_2.6666667461395">
			<feGaussianBlur stdDeviation="2.6666667461395"/>
		</filter>
	</defs>
	<g v:mID="0" v:index="1" v:groupContext="foregroundPage">
		<title>Side-1</title>
		<v:pageProperties v:drawingScale="0.0393701" v:pageScale="0.0393701" v:drawingUnits="24" v:shadowOffsetX="8.50394"
				v:shadowOffsetY="-8.50394"/>
		<v:layer v:name="Forbindelse" v:index="0"/>
		<g id="group1-1" transform="translate(0.12,-0.12)" v:mID="1" v:groupContext="group">
			<title>Ark.1</title>
			<g id="group2-2" transform="translate(382.677,0)" v:mID="2" v:groupContext="group">
				<title>Ark.2</title>
				<g id="shape3-3" v:mID="3" v:groupContext="shape">
					<title>Boks.643</title>
					<v:userDefs>
						<v:ud v:nameU="visVersion" v:val="VT0(15):26"/>
					</v:userDefs>
					<rect x="0" y="184.492" width="113.386" height="113.386" class="st1"/>
				</g>
				<g id="shape4-5" v:mID="4" v:groupContext="shape" transform="translate(19.8425,-49.6063)">
					<title>Rectangle.644</title>
					<v:userDefs>
						<v:ud v:nameU="visVersion" v:val="VT0(12):26"/>
					</v:userDefs>
					<rect x="0" y="289.374" width="14.1732" height="8.50394" class="st1"/>
				</g>
				<g id="shape5-7" v:mID="5" v:groupContext="shape" transform="translate(19.8425,-90.7087)">
					<title>Rectangle.645</title>
					<v:userDefs>
						<v:ud v:nameU="visVersion" v:val="VT0(12):26"/>
					</v:userDefs>
					<rect x="0" y="289.374" width="14.1732" height="8.50394" class="st1"/>
				</g>
				<g id="shape6-9" v:mID="6" v:groupContext="shape" transform="translate(90.7087,-99.2126)">
					<title>Rectangle.646</title>
					<v:userDefs>
						<v:ud v:nameU="visVersion" v:val="VT0(12):26"/>
					</v:userDefs>
					<rect x="0" y="289.374" width="14.1732" height="8.50394" class="st2"/>
				</g>
				<g id="shape7-11" v:mID="7" v:groupContext="shape" transform="translate(75.1181,-86.4567)">
					<title>Rectangle.647</title>
					<v:userDefs>
						<v:ud v:nameU="visVersion" v:val="VT0(12):26"/>
					</v:userDefs>
					<rect x="0" y="289.374" width="14.1732" height="8.50394" class="st1"/>
				</g>
				<g id="shape8-13" v:mID="8" v:groupContext="shape" transform="translate(48.189,-70.8661)">
					<title>Rectangle.648</title>
					<v:userDefs>
						<v:ud v:nameU="visVersion" v:val="VT0(12):26"/>
					</v:userDefs>
					<rect x="0" y="289.374" width="14.1732" height="8.50394" class="st1"/>
				</g>
				<g id="shape9-15" v:mID="9" v:groupContext="shape" transform="translate(48.189,-5.66929)">
					<title>Rectangle.405</title>
					<v:userDefs>
						<v:ud v:nameU="visVersion" v:val="VT0(12):26"/>
					</v:userDefs>
					<rect x="0" y="289.374" width="14.1732" height="8.50394" class="st2"/>
				</g>
				<g id="shape10-17" v:mID="10" v:groupContext="shape" transform="translate(76.5354,-48.189)">
					<title>Rectangle.650</title>
					<v:userDefs>
						<v:ud v:nameU="visVersion" v:val="VT0(12):26"/>
					</v:userDefs>
					<rect x="0" y="289.374" width="14.1732" height="8.50394" class="st3"/>
				</g>
				<g id="shape11-19" v:mID="11" v:groupContext="shape" transform="translate(19.8425,-19.8425)">
					<title>Rectangle.651</title>
					<v:userDefs>
						<v:ud v:nameU="visVersion" v:val="VT0(12):26"/>
					</v:userDefs>
					<rect x="0" y="289.374" width="14.1732" height="8.50394" class="st1"/>
				</g>
				<g id="shape12-21" v:mID="12" v:groupContext="shape" transform="translate(48.189,-28.3465)">
					<title>Rectangle.652</title>
					<v:userDefs>
						<v:ud v:nameU="visVersion" v:val="VT0(12):26"/>
					</v:userDefs>
					<rect x="0" y="289.374" width="14.1732" height="8.50394" class="st1"/>
				</g>
				<g id="shape13-23" v:mID="13" v:groupContext="shape" transform="translate(48.189,-48.189)">
					<title>Rectangle.653</title>
					<v:userDefs>
						<v:ud v:nameU="visVersion" v:val="VT0(12):26"/>
					</v:userDefs>
					<rect x="0" y="289.374" width="14.1732" height="8.50394" class="st1"/>
				</g>
				<g id="shape14-25" v:mID="14" v:groupContext="shape" transform="translate(324.357,205.797) rotate(89.2635)">
					<title>Ark.14</title>
					<path d="M0 297.88 L10.3 297.88" class="st4"/>
				</g>
				<g id="shape15-28" v:mID="15" v:groupContext="shape" transform="translate(24.6614,-87.0236)">
					<title>Trekant.655</title>
					<v:userDefs>
						<v:ud v:nameU="visVersion" v:val="VT0(14):26"/>
					</v:userDefs>
					<path d="M3.97 297.88 L1.84 294.19 L-0.29 297.88 L3.97 297.88 Z" class="st1"/>
				</g>
				<g id="shape16-30" v:mID="16" v:groupContext="shape" transform="translate(352.728,271.988) rotate(90)">
					<title>Ark.16</title>
					<path d="M0 297.88 L11.72 297.88" class="st4"/>
				</g>
				<g id="shape17-33" v:mID="17" v:groupContext="shape" transform="translate(53.0079,-24.6614)">
					<title>Trekant.417</title>
					<v:userDefs>
						<v:ud v:nameU="visVersion" v:val="VT0(14):26"/>
					</v:userDefs>
					<path d="M3.97 297.88 L1.84 294.19 L-0.29 297.88 L3.97 297.88 Z" class="st1"/>
				</g>
				<g id="shape18-35" v:mID="18" v:groupContext="shape" transform="translate(19.8425,-70.8661)">
					<title>Rectangle.658</title>
					<v:userDefs>
						<v:ud v:nameU="visVersion" v:val="VT0(12):26"/>
					</v:userDefs>
					<rect x="0" y="289.374" width="14.1732" height="8.50394" class="st1"/>
				</g>
				<g id="shape19-37" v:mID="19" v:groupContext="shape" transform="translate(324.807,269.531) rotate(90) scale(-1,1)">
					<title>Ark.19</title>
					<path d="M0 297.88 L21.26 297.88" class="st5"/>
				</g>
				<g id="shape20-43" v:mID="20" v:groupContext="shape" transform="translate(353.153,261.027) rotate(90) scale(-1,1)">
					<title>Ark.20</title>
					<path d="M0 297.88 L11.34 297.88" class="st5"/>
				</g>
				<g id="shape21-48" v:mID="21" v:groupContext="shape" transform="translate(377.248,265.279) rotate(90) scale(-1,1)">
					<title>Ark.21</title>
					<path d="M0 297.88 L15.59 297.88" class="st7"/>
				</g>
				<g id="shape22-54" v:mID="22" v:groupContext="shape" transform="translate(62.3622,-32.5984)">
					<title>Ark.22</title>
					<path d="M0 297.88 L17.01 297.88" class="st9"/>
				</g>
				<g id="shape23-57" v:mID="23" v:groupContext="shape" transform="translate(48.189,-9.92126) scale(-1,1)">
					<title>Ark.23</title>
					<path d="M0 297.88 L28.35 297.88" class="st5"/>
				</g>
				<g id="shape24-62" v:mID="24" v:groupContext="shape" transform="translate(11.3386,-24.0945)">
					<title>Ark.24</title>
					<path d="M0 297.88 L8.5 297.88" class="st5"/>
				</g>
				<g id="shape25-67" v:mID="25" v:groupContext="shape" transform="translate(309.216,273.783) rotate(90)">
					<title>Ark.25</title>
					<path d="M0 297.88 L14.17 297.88" class="st4"/>
				</g>
				<g id="shape26-70" v:mID="26" v:groupContext="shape" transform="translate(5.66929,-5.66929)">
					<title>Rectangle.394</title>
					<v:userDefs>
						<v:ud v:nameU="visVersion" v:val="VT0(12):26"/>
					</v:userDefs>
					<rect x="0" y="289.374" width="14.1732" height="8.50394" class="st2"/>
				</g>
				<g id="shape27-72" v:mID="27" v:groupContext="shape"
						transform="translate(-270.949,227.012) rotate(-90) scale(-1,1)">
					<title>Ark.27</title>
					<path d="M0 297.88 L12.76 297.88" class="st5"/>
				</g>
				<g id="shape28-77" v:mID="28" v:groupContext="shape" transform="translate(34.0157,-75.1181)">
					<title>Ark.28</title>
					<path d="M0 297.88 L14.17 297.88" class="st5"/>
				</g>
				<g id="shape29-82" v:mID="29" v:groupContext="shape" transform="translate(55.2756,-90.7087)">
					<title>Ark.29</title>
					<path d="M0 297.88 L19.84 297.88" class="st5"/>
				</g>
				<g id="shape30-87" v:mID="30" v:groupContext="shape" transform="translate(353.153,207.169) rotate(90)">
					<title>Ark.30</title>
					<path d="M0 297.88 L11.34 297.88" class="st4"/>
				</g>
				<g id="shape31-90" v:mID="31" v:groupContext="shape" transform="translate(395.673,207.169) rotate(90) scale(-1,1)">
					<title>Ark.31</title>
					<path d="M0 297.88 L8.5 297.88" class="st5"/>
				</g>
				<g id="shape32-95" v:mID="32" v:groupContext="shape" transform="translate(97.7953,505.047) rotate(180)">
					<title>Ark.32</title>
					<path d="M0 297.88 L8.5 297.88" class="st4"/>
				</g>
				<g id="shape33-98" v:mID="33" v:groupContext="shape" transform="translate(48.2597,-53.8583) scale(-1,1)">
					<title>Ark.33</title>
					<path d="M0 297.88 L14.24 297.88" class="st5"/>
				</g>
			</g>
			<g id="group34-103" transform="translate(255.118,0)" v:mID="34" v:groupContext="group">
				<title>Ark.34</title>
				<g id="shape35-104" v:mID="35" v:groupContext="shape">
					<title>Boks.190</title>
					<v:userDefs>
						<v:ud v:nameU="visVersion" v:val="VT0(15):26"/>
					</v:userDefs>
					<rect x="0" y="184.492" width="113.386" height="113.386" class="st1"/>
				</g>
				<g id="shape36-106" v:mID="36" v:groupContext="shape" transform="translate(19.8425,-49.6063)">
					<title>Rectangle.396</title>
					<v:userDefs>
						<v:ud v:nameU="visVersion" v:val="VT0(12):26"/>
					</v:userDefs>
					<rect x="0" y="289.374" width="14.1732" height="8.50394" class="st1"/>
				</g>
				<g id="shape37-108" v:mID="37" v:groupContext="shape" transform="translate(19.8425,-90.7087)">
					<title>Rectangle.398</title>
					<v:userDefs>
						<v:ud v:nameU="visVersion" v:val="VT0(12):26"/>
					</v:userDefs>
					<rect x="0" y="289.374" width="14.1732" height="8.50394" class="st1"/>
				</g>
				<g id="shape38-110" v:mID="38" v:groupContext="shape" transform="translate(75.1181,-86.4567)">
					<title>Rectangle.401</title>
					<v:userDefs>
						<v:ud v:nameU="visVersion" v:val="VT0(12):26"/>
					</v:userDefs>
					<rect x="0" y="289.374" width="14.1732" height="8.50394" class="st1"/>
				</g>
				<g id="shape39-112" v:mID="39" v:groupContext="shape" transform="translate(48.189,-70.8661)">
					<title>Rectangle.402</title>
					<v:userDefs>
						<v:ud v:nameU="visVersion" v:val="VT0(12):26"/>
					</v:userDefs>
					<rect x="0" y="289.374" width="14.1732" height="8.50394" class="st1"/>
				</g>
				<g id="shape40-114" v:mID="40" v:groupContext="shape" transform="translate(90.7087,-76.5354)">
					<title>Rectangle.403</title>
					<v:userDefs>
						<v:ud v:nameU="visVersion" v:val="VT0(12):26"/>
					</v:userDefs>
					<rect x="0" y="289.374" width="14.1732" height="8.50394" class="st10"/>
				</g>
				<g id="shape41-116" v:mID="41" v:groupContext="shape" transform="translate(76.5354,-63.7795)">
					<title>Rectangle.404</title>
					<v:userDefs>
						<v:ud v:nameU="visVersion" v:val="VT0(12):26"/>
					</v:userDefs>
					<rect x="0" y="289.374" width="14.1732" height="8.50394" class="st10"/>
				</g>
				<g id="shape42-118" v:mID="42" v:groupContext="shape" transform="translate(76.5354,-5.66929)">
					<title>Rectangle.406</title>
					<v:userDefs>
						<v:ud v:nameU="visVersion" v:val="VT0(12):26"/>
					</v:userDefs>
					<rect x="0" y="289.374" width="14.1732" height="8.50394" class="st10"/>
				</g>
				<g id="shape43-120" v:mID="43" v:groupContext="shape" transform="translate(76.5354,-48.189)">
					<title>Rectangle.408</title>
					<v:userDefs>
						<v:ud v:nameU="visVersion" v:val="VT0(12):26"/>
					</v:userDefs>
					<rect x="0" y="289.374" width="14.1732" height="8.50394" class="st1"/>
				</g>
				<g id="shape44-122" v:mID="44" v:groupContext="shape" transform="translate(19.8425,-19.8425)">
					<title>Rectangle.409</title>
					<v:userDefs>
						<v:ud v:nameU="visVersion" v:val="VT0(12):26"/>
					</v:userDefs>
					<rect x="0" y="289.374" width="14.1732" height="8.50394" class="st1"/>
				</g>
				<g id="shape45-124" v:mID="45" v:groupContext="shape" transform="translate(48.189,-28.3465)">
					<title>Rectangle.410</title>
					<v:userDefs>
						<v:ud v:nameU="visVersion" v:val="VT0(12):26"/>
					</v:userDefs>
					<rect x="0" y="289.374" width="14.1732" height="8.50394" class="st1"/>
				</g>
				<g id="shape46-126" v:mID="46" v:groupContext="shape" transform="translate(48.189,-48.189)">
					<title>Rectangle.411</title>
					<v:userDefs>
						<v:ud v:nameU="visVersion" v:val="VT0(12):26"/>
					</v:userDefs>
					<rect x="0" y="289.374" width="14.1732" height="8.50394" class="st1"/>
				</g>
				<g id="shape47-128" v:mID="47" v:groupContext="shape" transform="translate(324.357,205.797) rotate(89.2635)">
					<title>Ark.47</title>
					<path d="M0 297.88 L10.3 297.88" class="st4"/>
				</g>
				<g id="shape48-131" v:mID="48" v:groupContext="shape" transform="translate(24.6614,-87.0236)">
					<title>Trekant.413</title>
					<v:userDefs>
						<v:ud v:nameU="visVersion" v:val="VT0(14):26"/>
					</v:userDefs>
					<path d="M3.97 297.88 L1.84 294.19 L-0.29 297.88 L3.97 297.88 Z" class="st1"/>
				</g>
				<g id="shape49-133" v:mID="49" v:groupContext="shape" transform="translate(380.083,214.445) rotate(90)">
					<title>Ark.49</title>
					<path d="M0 297.88 L11.24 297.88" class="st4"/>
				</g>
				<g id="shape50-136" v:mID="50" v:groupContext="shape" transform="translate(80.3622,-82.2047)">
					<title>Trekant.415</title>
					<v:userDefs>
						<v:ud v:nameU="visVersion" v:val="VT0(14):26"/>
					</v:userDefs>
					<path d="M3.97 297.88 L1.84 294.19 L-0.29 297.88 L3.97 297.88 Z" class="st1"/>
				</g>
				<g id="shape51-138" v:mID="51" v:groupContext="shape" transform="translate(19.8425,-70.8661)">
					<title>Rectangle.397</title>
					<v:userDefs>
						<v:ud v:nameU="visVersion" v:val="VT0(12):26"/>
					</v:userDefs>
					<rect x="0" y="289.374" width="14.1732" height="8.50394" class="st1"/>
				</g>
				<g id="shape52-140" v:mID="52" v:groupContext="shape" transform="translate(324.807,269.531) rotate(90) scale(-1,1)">
					<title>Ark.52</title>
					<path d="M0 297.88 L21.26 297.88" class="st5"/>
				</g>
				<g id="shape53-145" v:mID="53" v:groupContext="shape" transform="translate(353.153,261.027) rotate(90) scale(-1,1)">
					<title>Ark.53</title>
					<path d="M0 297.88 L11.34 297.88" class="st5"/>
				</g>
				<g id="shape54-150" v:mID="54" v:groupContext="shape" transform="translate(377.248,265.279) rotate(90) scale(-1,1)">
					<title>Ark.54</title>
					<path d="M0 297.88 L15.59 297.88" class="st5"/>
				</g>
				<g id="shape55-155" v:mID="55" v:groupContext="shape"
						transform="translate(-214.256,249.689) rotate(-90) scale(-1,1)">
					<title>Ark.55</title>
					<path d="M0 297.88 L34.02 297.88" class="st5"/>
				</g>
				<g id="shape56-160" v:mID="56" v:groupContext="shape" transform="translate(62.3622,-32.5984)">
					<title>Ark.56</title>
					<path d="M0 297.88 L17.01 297.88" class="st4"/>
				</g>
				<g id="shape57-163" v:mID="57" v:groupContext="shape"
						transform="translate(-270.949,227.012) rotate(-90) scale(-1,1)">
					<title>Ark.57</title>
					<path d="M0 297.88 L12.76 297.88" class="st5"/>
				</g>
				<g id="shape58-168" v:mID="58" v:groupContext="shape" transform="translate(34.0157,-75.1181)">
					<title>Ark.58</title>
					<path d="M0 297.88 L14.17 297.88" class="st5"/>
				</g>
				<g id="shape59-173" v:mID="59" v:groupContext="shape" transform="translate(55.2756,-90.7087)">
					<title>Ark.59</title>
					<path d="M0 297.88 L19.84 297.88" class="st5"/>
				</g>
				<g id="shape60-178" v:mID="60" v:groupContext="shape" transform="translate(353.153,207.169) rotate(90)">
					<title>Ark.60</title>
					<path d="M0 297.88 L11.34 297.88" class="st4"/>
				</g>
				<g id="shape61-181" v:mID="61" v:groupContext="shape" transform="translate(97.7953,-68.0315) scale(-1,1)">
					<title>Ark.61</title>
					<path d="M0 297.88 L7.09 297.88" class="st5"/>
				</g>
				<g id="shape62-186" v:mID="62" v:groupContext="shape" transform="translate(395.673,221.342) rotate(90)">
					<title>Ark.62</title>
					<path d="M0 297.88 L8.5 297.88" class="st4"/>
				</g>
				<g id="shape63-189" v:mID="63" v:groupContext="shape" transform="translate(48.2597,-53.8583) scale(-1,1)">
					<title>Ark.63</title>
					<path d="M0 297.88 L14.24 297.88" class="st5"/>
				</g>
			</g>
			<g id="group64-194" transform="translate(127.559,0)" v:mID="64" v:groupContext="group">
				<title>Ark.64</title>
				<g id="shape65-195" v:mID="65" v:groupContext="shape">
					<title>Boks.190</title>
					<v:userDefs>
						<v:ud v:nameU="visVersion" v:val="VT0(15):26"/>
					</v:userDefs>
					<rect x="0" y="184.492" width="113.386" height="113.386" class="st1"/>
				</g>
				<g id="shape66-197" v:mID="66" v:groupContext="shape" transform="translate(19.8425,-49.6063)">
					<title>Rectangle.396</title>
					<v:userDefs>
						<v:ud v:nameU="visVersion" v:val="VT0(12):26"/>
					</v:userDefs>
					<rect x="0" y="289.374" width="14.1732" height="8.50394" class="st1"/>
				</g>
				<g id="shape67-199" v:mID="67" v:groupContext="shape" transform="translate(19.8425,-90.7087)">
					<title>Rectangle.398</title>
					<v:userDefs>
						<v:ud v:nameU="visVersion" v:val="VT0(12):26"/>
					</v:userDefs>
					<rect x="0" y="289.374" width="14.1732" height="8.50394" class="st1"/>
				</g>
				<g id="shape68-201" v:mID="68" v:groupContext="shape" transform="translate(90.7087,-99.2126)">
					<title>Rectangle.400</title>
					<v:userDefs>
						<v:ud v:nameU="visVersion" v:val="VT0(12):26"/>
					</v:userDefs>
					<rect x="0" y="289.374" width="14.1732" height="8.50394" class="st11"/>
				</g>
				<g id="shape69-203" v:mID="69" v:groupContext="shape" transform="translate(75.1181,-86.4567)">
					<title>Rectangle.401</title>
					<v:userDefs>
						<v:ud v:nameU="visVersion" v:val="VT0(12):26"/>
					</v:userDefs>
					<rect x="0" y="289.374" width="14.1732" height="8.50394" class="st1"/>
				</g>
				<g id="shape70-205" v:mID="70" v:groupContext="shape" transform="translate(48.189,-70.8661)">
					<title>Rectangle.402</title>
					<v:userDefs>
						<v:ud v:nameU="visVersion" v:val="VT0(12):26"/>
					</v:userDefs>
					<rect x="0" y="289.374" width="14.1732" height="8.50394" class="st1"/>
				</g>
				<g id="shape71-207" v:mID="71" v:groupContext="shape" transform="translate(76.5354,-48.189)">
					<title>Rectangle.408</title>
					<v:userDefs>
						<v:ud v:nameU="visVersion" v:val="VT0(12):26"/>
					</v:userDefs>
					<rect x="0" y="289.374" width="14.1732" height="8.50394" class="st1"/>
				</g>
				<g id="shape72-209" v:mID="72" v:groupContext="shape" transform="translate(19.8425,-19.8425)">
					<title>Rectangle.409</title>
					<v:userDefs>
						<v:ud v:nameU="visVersion" v:val="VT0(12):26"/>
					</v:userDefs>
					<rect x="0" y="289.374" width="14.1732" height="8.50394" class="st1"/>
				</g>
				<g id="shape73-211" v:mID="73" v:groupContext="shape" transform="translate(48.189,-28.3465)">
					<title>Rectangle.410</title>
					<v:userDefs>
						<v:ud v:nameU="visVersion" v:val="VT0(12):26"/>
					</v:userDefs>
					<rect x="0" y="289.374" width="14.1732" height="8.50394" class="st1"/>
				</g>
				<g id="shape74-213" v:mID="74" v:groupContext="shape" transform="translate(48.189,-48.189)">
					<title>Rectangle.411</title>
					<v:userDefs>
						<v:ud v:nameU="visVersion" v:val="VT0(12):26"/>
					</v:userDefs>
					<rect x="0" y="289.374" width="14.1732" height="8.50394" class="st1"/>
				</g>
				<g id="shape75-215" v:mID="75" v:groupContext="shape" transform="translate(324.357,205.797) rotate(89.2635)">
					<title>Ark.75</title>
					<path d="M0 297.88 L10.3 297.88" class="st4"/>
				</g>
				<g id="shape76-218" v:mID="76" v:groupContext="shape" transform="translate(24.6614,-87.0236)">
					<title>Trekant.413</title>
					<v:userDefs>
						<v:ud v:nameU="visVersion" v:val="VT0(14):26"/>
					</v:userDefs>
					<path d="M3.97 297.88 L1.84 294.19 L-0.29 297.88 L3.97 297.88 Z" class="st1"/>
				</g>
				<g id="shape77-220" v:mID="77" v:groupContext="shape" transform="translate(19.8425,-70.8661)">
					<title>Rectangle.397</title>
					<v:userDefs>
						<v:ud v:nameU="visVersion" v:val="VT0(12):26"/>
					</v:userDefs>
					<rect x="0" y="289.374" width="14.1732" height="8.50394" class="st1"/>
				</g>
				<g id="shape78-222" v:mID="78" v:groupContext="shape" transform="translate(324.807,269.531) rotate(90) scale(-1,1)">
					<title>Ark.78</title>
					<path d="M0 297.88 L21.26 297.88" class="st5"/>
				</g>
				<g id="shape79-227" v:mID="79" v:groupContext="shape" transform="translate(353.153,261.027) rotate(90) scale(-1,1)">
					<title>Ark.79</title>
					<path d="M0 297.88 L11.34 297.88" class="st5"/>
				</g>
				<g id="shape80-232" v:mID="80" v:groupContext="shape" transform="translate(377.248,265.279) rotate(90) scale(-1,1)">
					<title>Ark.80</title>
					<path d="M0 297.88 L15.59 297.88" class="st5"/>
				</g>
				<g id="shape81-237" v:mID="81" v:groupContext="shape" transform="translate(384.334,261.027) rotate(90) scale(-1,1)">
					<title>Ark.81</title>
					<path d="M0 297.88 L11.34 297.88" class="st5"/>
				</g>
				<g id="shape82-242" v:mID="82" v:groupContext="shape" transform="translate(62.3622,-32.5984)">
					<title>Ark.82</title>
					<path d="M0 297.88 L17.01 297.88" class="st4"/>
				</g>
				<g id="shape83-245" v:mID="83" v:groupContext="shape" transform="translate(86.4567,-36.8504)">
					<title>Ark.83</title>
					<path d="M0 297.88 L5.67 297.88" class="st4"/>
				</g>
				<g id="shape84-248" v:mID="84" v:groupContext="shape" transform="translate(90.7087,-34.0157)">
					<title>Rectangle.407</title>
					<v:userDefs>
						<v:ud v:nameU="visVersion" v:val="VT0(12):26"/>
					</v:userDefs>
					<rect x="0" y="289.374" width="14.1732" height="8.50394" class="st11"/>
				</g>
				<g id="shape85-250" v:mID="85" v:groupContext="shape"
						transform="translate(-270.949,227.012) rotate(-90) scale(-1,1)">
					<title>Ark.85</title>
					<path d="M0 297.88 L12.76 297.88" class="st5"/>
				</g>
				<g id="shape86-255" v:mID="86" v:groupContext="shape" transform="translate(34.0157,-75.1181)">
					<title>Ark.86</title>
					<path d="M0 297.88 L14.17 297.88" class="st5"/>
				</g>
				<g id="shape87-260" v:mID="87" v:groupContext="shape" transform="translate(55.2756,-90.7087)">
					<title>Ark.87</title>
					<path d="M0 297.88 L19.84 297.88" class="st5"/>
				</g>
				<g id="shape88-265" v:mID="88" v:groupContext="shape" transform="translate(353.153,207.169) rotate(90)">
					<title>Ark.88</title>
					<path d="M0 297.88 L11.34 297.88" class="st4"/>
				</g>
				<g id="shape89-268" v:mID="89" v:groupContext="shape" transform="translate(395.673,207.169) rotate(90) scale(-1,1)">
					<title>Ark.89</title>
					<path d="M0 297.88 L8.5 297.88" class="st5"/>
				</g>
				<g id="shape90-273" v:mID="90" v:groupContext="shape" transform="translate(97.7953,505.047) rotate(180)">
					<title>Ark.90</title>
					<path d="M0 297.88 L8.5 297.88" class="st4"/>
				</g>
				<g id="shape91-276" v:mID="91" v:groupContext="shape" transform="translate(48.2597,-53.8583) scale(-1,1)">
					<title>Ark.91</title>
					<path d="M0 297.88 L14.24 297.88" class="st5"/>
				</g>
			</g>
			<g id="group92-281" v:mID="92" v:groupContext="group">
				<title>Ark.92</title>
				<g id="shape93-282" v:mID="93" v:groupContext="shape">
					<title>Boks.190</title>
					<v:userDefs>
						<v:ud v:nameU="visVersion" v:val="VT0(15):26"/>
					</v:userDefs>
					<rect x="0" y="184.492" width="113.386" height="113.386" class="st1"/>
				</g>
				<g id="shape94-284" v:mID="94" v:groupContext="shape" transform="translate(19.8425,-49.6063)">
					<title>Rectangle.396</title>
					<v:userDefs>
						<v:ud v:nameU="visVersion" v:val="VT0(12):26"/>
					</v:userDefs>
					<rect x="0" y="289.374" width="14.1732" height="8.50394" class="st1"/>
				</g>
				<g id="shape95-286" v:mID="95" v:groupContext="shape" transform="translate(19.8425,-90.7087)">
					<title>Rectangle.398</title>
					<v:userDefs>
						<v:ud v:nameU="visVersion" v:val="VT0(12):26"/>
					</v:userDefs>
					<rect x="0" y="289.374" width="14.1732" height="8.50394" class="st1"/>
				</g>
				<g id="shape96-288" v:mID="96" v:groupContext="shape" transform="translate(48.189,-99.2126)">
					<title>Rectangle.399</title>
					<v:userDefs>
						<v:ud v:nameU="visVersion" v:val="VT0(12):26"/>
					</v:userDefs>
					<rect x="0" y="289.374" width="14.1732" height="8.50394" class="st12"/>
				</g>
				<g id="shape97-290" v:mID="97" v:groupContext="shape" transform="translate(75.1181,-86.4567)">
					<title>Rectangle.401</title>
					<v:userDefs>
						<v:ud v:nameU="visVersion" v:val="VT0(12):26"/>
					</v:userDefs>
					<rect x="0" y="289.374" width="14.1732" height="8.50394" class="st1"/>
				</g>
				<g id="shape98-292" v:mID="98" v:groupContext="shape" transform="translate(48.189,-70.8661)">
					<title>Rectangle.402</title>
					<v:userDefs>
						<v:ud v:nameU="visVersion" v:val="VT0(12):26"/>
					</v:userDefs>
					<rect x="0" y="289.374" width="14.1732" height="8.50394" class="st1"/>
				</g>
				<g id="shape99-294" v:mID="99" v:groupContext="shape" transform="translate(48.189,-5.66929)">
					<title>Rectangle.405</title>
					<v:userDefs>
						<v:ud v:nameU="visVersion" v:val="VT0(12):26"/>
					</v:userDefs>
					<rect x="0" y="289.374" width="14.1732" height="8.50394" class="st12"/>
				</g>
				<g id="shape100-296" v:mID="100" v:groupContext="shape" transform="translate(76.5354,-48.189)">
					<title>Rectangle.408</title>
					<v:userDefs>
						<v:ud v:nameU="visVersion" v:val="VT0(12):26"/>
					</v:userDefs>
					<rect x="0" y="289.374" width="14.1732" height="8.50394" class="st1"/>
				</g>
				<g id="shape101-298" v:mID="101" v:groupContext="shape" transform="translate(19.8425,-19.8425)">
					<title>Rectangle.409</title>
					<v:userDefs>
						<v:ud v:nameU="visVersion" v:val="VT0(12):26"/>
					</v:userDefs>
					<rect x="0" y="289.374" width="14.1732" height="8.50394" class="st3"/>
				</g>
				<g id="shape102-300" v:mID="102" v:groupContext="shape" transform="translate(48.189,-28.3465)">
					<title>Rectangle.410</title>
					<v:userDefs>
						<v:ud v:nameU="visVersion" v:val="VT0(12):26"/>
					</v:userDefs>
					<rect x="0" y="289.374" width="14.1732" height="8.50394" class="st1"/>
				</g>
				<g id="shape103-302" v:mID="103" v:groupContext="shape" transform="translate(48.189,-48.189)">
					<title>Rectangle.411</title>
					<v:userDefs>
						<v:ud v:nameU="visVersion" v:val="VT0(12):26"/>
					</v:userDefs>
					<rect x="0" y="289.374" width="14.1732" height="8.50394" class="st1"/>
				</g>
				<g id="shape104-304" v:mID="104" v:groupContext="shape" transform="translate(324.357,205.797) rotate(89.2635)">
					<title>Ark.104</title>
					<path d="M0 297.88 L10.3 297.88" class="st4"/>
				</g>
				<g id="shape105-307" v:mID="105" v:groupContext="shape" transform="translate(24.6614,-87.0236)">
					<title>Trekant.413</title>
					<v:userDefs>
						<v:ud v:nameU="visVersion" v:val="VT0(14):26"/>
					</v:userDefs>
					<path d="M3.97 297.88 L1.84 294.19 L-0.29 297.88 L3.97 297.88 Z" class="st1"/>
				</g>
				<g id="shape106-309" v:mID="106" v:groupContext="shape" transform="translate(352.728,271.988) rotate(90)">
					<title>Ark.106</title>
					<path d="M0 297.88 L11.72 297.88" class="st4"/>
				</g>
				<g id="shape107-312" v:mID="107" v:groupContext="shape" transform="translate(53.0079,-24.6614)">
					<title>Trekant.417</title>
					<v:userDefs>
						<v:ud v:nameU="visVersion" v:val="VT0(14):26"/>
					</v:userDefs>
					<path d="M3.97 297.88 L1.84 294.19 L-0.29 297.88 L3.97 297.88 Z" class="st1"/>
				</g>
				<g id="shape108-314" v:mID="108" v:groupContext="shape" transform="translate(19.8425,-70.8661)">
					<title>Rectangle.397</title>
					<v:userDefs>
						<v:ud v:nameU="visVersion" v:val="VT0(12):26"/>
					</v:userDefs>
					<rect x="0" y="289.374" width="14.1732" height="8.50394" class="st1"/>
				</g>
				<g id="shape109-316" v:mID="109" v:groupContext="shape"
						transform="translate(324.807,269.531) rotate(90) scale(-1,1)">
					<title>Ark.109</title>
					<path d="M0 297.88 L21.26 297.88" class="st7"/>
				</g>
				<g id="shape110-321" v:mID="110" v:groupContext="shape"
						transform="translate(353.153,261.027) rotate(90) scale(-1,1)">
					<title>Ark.110</title>
					<path d="M0 297.88 L11.34 297.88" class="st5"/>
				</g>
				<g id="shape111-326" v:mID="111" v:groupContext="shape"
						transform="translate(377.248,265.279) rotate(90) scale(-1,1)">
					<title>Ark.111</title>
					<path d="M0 297.88 L15.59 297.88" class="st5"/>
				</g>
				<g id="shape112-331" v:mID="112" v:groupContext="shape" transform="translate(62.3622,-32.5984)">
					<title>Ark.112</title>
					<path d="M0 297.88 L17.01 297.88" class="st4"/>
				</g>
				<g id="shape113-334" v:mID="113" v:groupContext="shape" transform="translate(11.3386,-53.8583)">
					<title>Ark.113</title>
					<path d="M0 297.88 L8.5 297.88" class="st5"/>
				</g>
				<g id="shape114-339" v:mID="114" v:groupContext="shape" transform="translate(309.216,244.02) rotate(90)">
					<title>Ark.114</title>
					<path d="M0 297.88 L14.17 297.88" class="st4"/>
				</g>
				<g id="shape115-342" v:mID="115" v:groupContext="shape" transform="translate(5.66929,-34.0157)">
					<title>Rectangle.395</title>
					<v:userDefs>
						<v:ud v:nameU="visVersion" v:val="VT0(12):26"/>
					</v:userDefs>
					<rect x="0" y="289.374" width="14.1732" height="8.50394" class="st12"/>
				</g>
				<g id="shape116-344" v:mID="116" v:groupContext="shape"
						transform="translate(-270.949,227.012) rotate(-90) scale(-1,1)">
					<title>Ark.116</title>
					<path d="M0 297.88 L12.76 297.88" class="st5"/>
				</g>
				<g id="shape117-349" v:mID="117" v:groupContext="shape" transform="translate(34.0157,-75.1181)">
					<title>Ark.117</title>
					<path d="M0 297.88 L14.17 297.88" class="st5"/>
				</g>
				<g id="shape118-354" v:mID="118" v:groupContext="shape" transform="translate(55.2756,-90.7087)">
					<title>Ark.118</title>
					<path d="M0 297.88 L19.84 297.88" class="st5"/>
				</g>
				<g id="shape119-359" v:mID="119" v:groupContext="shape" transform="translate(353.153,207.169) rotate(90)">
					<title>Ark.119</title>
					<path d="M0 297.88 L11.34 297.88" class="st4"/>
				</g>
				<g id="shape120-362" v:mID="120" v:groupContext="shape" transform="translate(82.2047,-103.465) scale(-1,1)">
					<title>Ark.120</title>
					<path d="M0 297.88 L19.84 297.88" class="st5"/>
				</g>
				<g id="shape121-367" v:mID="121" v:groupContext="shape" transform="translate(380.083,194.413) rotate(90)">
					<title>Ark.121</title>
					<path d="M0 297.88 L8.5 297.88" class="st4"/>
				</g>
				<g id="shape122-370" v:mID="122" v:groupContext="shape" transform="translate(48.2597,-53.8583) scale(-1,1)">
					<title>Ark.122</title>
					<path d="M0 297.88 L14.24 297.88" class="st5"/>
				</g>
			</g>
			<g id="group123-375" transform="translate(191.339,-184.252)" v:mID="123" v:groupContext="group">
				<title>Ark.123</title>
				<g id="shape124-376" v:mID="124" v:groupContext="shape">
					<title>Boks.190</title>
					<v:userDefs>
						<v:ud v:nameU="visVersion" v:val="VT0(15):26"/>
					</v:userDefs>
					<rect x="0" y="184.492" width="113.386" height="113.386" class="st1"/>
				</g>
				<g id="shape125-378" v:mID="125" v:groupContext="shape" transform="translate(19.8425,-49.6063)">
					<title>Rectangle.396</title>
					<v:userDefs>
						<v:ud v:nameU="visVersion" v:val="VT0(12):26"/>
					</v:userDefs>
					<rect x="0" y="289.374" width="14.1732" height="8.50394" class="st1"/>
				</g>
				<g id="shape126-380" v:mID="126" v:groupContext="shape" transform="translate(19.8425,-90.7087)">
					<title>Rectangle.398</title>
					<v:userDefs>
						<v:ud v:nameU="visVersion" v:val="VT0(12):26"/>
					</v:userDefs>
					<rect x="0" y="289.374" width="14.1732" height="8.50394" class="st1"/>
				</g>
				<g id="shape127-382" v:mID="127" v:groupContext="shape" transform="translate(75.1181,-86.4567)">
					<title>Rectangle.401</title>
					<v:userDefs>
						<v:ud v:nameU="visVersion" v:val="VT0(12):26"/>
					</v:userDefs>
					<rect x="0" y="289.374" width="14.1732" height="8.50394" class="st1"/>
				</g>
				<g id="shape128-384" v:mID="128" v:groupContext="shape" transform="translate(48.189,-70.8661)">
					<title>Rectangle.402</title>
					<v:userDefs>
						<v:ud v:nameU="visVersion" v:val="VT0(12):26"/>
					</v:userDefs>
					<rect x="0" y="289.374" width="14.1732" height="8.50394" class="st1"/>
				</g>
				<g id="shape129-386" v:mID="129" v:groupContext="shape" transform="translate(76.5354,-48.189)">
					<title>Rectangle.408</title>
					<v:userDefs>
						<v:ud v:nameU="visVersion" v:val="VT0(12):26"/>
					</v:userDefs>
					<rect x="0" y="289.374" width="14.1732" height="8.50394" class="st1"/>
				</g>
				<g id="shape130-388" v:mID="130" v:groupContext="shape" transform="translate(19.8425,-19.8425)">
					<title>Rectangle.409</title>
					<v:userDefs>
						<v:ud v:nameU="visVersion" v:val="VT0(12):26"/>
					</v:userDefs>
					<rect x="0" y="289.374" width="14.1732" height="8.50394" class="st1"/>
				</g>
				<g id="shape131-390" v:mID="131" v:groupContext="shape" transform="translate(48.189,-28.3465)">
					<title>Rectangle.410</title>
					<v:userDefs>
						<v:ud v:nameU="visVersion" v:val="VT0(12):26"/>
					</v:userDefs>
					<rect x="0" y="289.374" width="14.1732" height="8.50394" class="st1"/>
				</g>
				<g id="shape132-392" v:mID="132" v:groupContext="shape" transform="translate(48.189,-48.189)">
					<title>Rectangle.411</title>
					<v:userDefs>
						<v:ud v:nameU="visVersion" v:val="VT0(12):26"/>
					</v:userDefs>
					<rect x="0" y="289.374" width="14.1732" height="8.50394" class="st1"/>
				</g>
				<g id="shape133-394" v:mID="133" v:groupContext="shape" transform="translate(324.357,205.797) rotate(89.2635)">
					<title>Ark.133</title>
					<path d="M0 297.88 L10.3 297.88" class="st4"/>
				</g>
				<g id="shape134-397" v:mID="134" v:groupContext="shape" transform="translate(24.6614,-87.0236)">
					<title>Trekant.413</title>
					<v:userDefs>
						<v:ud v:nameU="visVersion" v:val="VT0(14):26"/>
					</v:userDefs>
					<path d="M3.97 297.88 L1.84 294.19 L-0.29 297.88 L3.97 297.88 Z" class="st1"/>
				</g>
				<g id="shape135-399" v:mID="135" v:groupContext="shape" transform="translate(19.8425,-70.8661)">
					<title>Rectangle.397</title>
					<v:userDefs>
						<v:ud v:nameU="visVersion" v:val="VT0(12):26"/>
					</v:userDefs>
					<rect x="0" y="289.374" width="14.1732" height="8.50394" class="st1"/>
				</g>
				<g id="shape136-401" v:mID="136" v:groupContext="shape"
						transform="translate(324.807,269.531) rotate(90) scale(-1,1)">
					<title>Ark.136</title>
					<path d="M0 297.88 L21.26 297.88" class="st5"/>
				</g>
				<g id="shape137-406" v:mID="137" v:groupContext="shape"
						transform="translate(353.153,261.027) rotate(90) scale(-1,1)">
					<title>Ark.137</title>
					<path d="M0 297.88 L11.34 297.88" class="st5"/>
				</g>
				<g id="shape138-411" v:mID="138" v:groupContext="shape"
						transform="translate(377.248,265.279) rotate(90) scale(-1,1)">
					<title>Ark.138</title>
					<path d="M0 297.88 L15.59 297.88" class="st5"/>
				</g>
				<g id="shape139-416" v:mID="139" v:groupContext="shape" transform="translate(62.3622,-32.5984)">
					<title>Ark.139</title>
					<path d="M0 297.88 L17.01 297.88" class="st4"/>
				</g>
				<g id="shape140-419" v:mID="140" v:groupContext="shape"
						transform="translate(-270.949,227.012) rotate(-90) scale(-1,1)">
					<title>Ark.140</title>
					<path d="M0 297.88 L12.76 297.88" class="st5"/>
				</g>
				<g id="shape141-424" v:mID="141" v:groupContext="shape" transform="translate(34.0157,-75.1181)">
					<title>Ark.141</title>
					<path d="M0 297.88 L14.17 297.88" class="st5"/>
				</g>
				<g id="shape142-429" v:mID="142" v:groupContext="shape" transform="translate(55.2756,-90.7087)">
					<title>Ark.142</title>
					<path d="M0 297.88 L19.84 297.88" class="st5"/>
				</g>
				<g id="shape143-434" v:mID="143" v:groupContext="shape" transform="translate(353.153,207.169) rotate(90)">
					<title>Ark.143</title>
					<path d="M0 297.88 L11.34 297.88" class="st4"/>
				</g>
				<g id="shape144-437" v:mID="144" v:groupContext="shape" transform="translate(48.2597,-53.8583) scale(-1,1)">
					<title>Ark.144</title>
					<path d="M0 297.88 L14.24 297.88" class="st5"/>
				</g>
			</g>
			<g id="shape145-442" v:mID="145" v:groupContext="shape" v:layerMember="0"
					transform="translate(351.489,-165.709) rotate(20.3231)">
				<title>Forbindelse, kurvet streg.13</title>
				<v:userDefs>
					<v:ud v:nameU="AntiScale" v:val="VT0(1):26"/>
					<v:ud v:nameU="Scale" v:val="VT0(1):26"/>
					<v:ud v:nameU="visVersion" v:val="VT0(14):26"/>
				</v:userDefs>
				<path d="M0 297.88 L33.7 289.91 L64.37 283.44 L91.99 278.48 L116.57 275.02 L138.11 273.07 L156.62 272.62 L172.08
							 273.68 L184.5 276.24 L193.88 280.3 L200.22 285.87 L200.33 286.21" class="st13"/>
			</g>
			<g id="shape146-448" v:mID="146" v:groupContext="shape" v:layerMember="0"
					transform="translate(469.442,-85.6439) rotate(48.0128)">
				<title>Forbindelse, kurvet streg.151</title>
				<v:userDefs>
					<v:ud v:nameU="AntiScale" v:val="VT0(1):26"/>
					<v:ud v:nameU="Scale" v:val="VT0(1):26"/>
					<v:ud v:nameU="visVersion" v:val="VT0(14):26"/>
				</v:userDefs>
				<path d="M0 297.88 L14.94 290.37 L28.99 284.97 L42.14 281.69 L54.39 280.52 L65.75 281.46 L76.21 284.51 L85.78 289.68
							 L86.05 289.91" class="st13"/>
			</g>
			<g id="shape147-453" v:mID="147" v:groupContext="shape" v:layerMember="0"
					transform="translate(26.6207,-85.6439) rotate(-48.0128) scale(-1,1)">
				<title>Forbindelse, kurvet streg.152</title>
				<v:userDefs>
					<v:ud v:nameU="AntiScale" v:val="VT0(1):26"/>
					<v:ud v:nameU="Scale" v:val="VT0(1):26"/>
					<v:ud v:nameU="visVersion" v:val="VT0(14):26"/>
				</v:userDefs>
				<path d="M0 297.88 L14.94 290.37 L28.99 284.97 L42.14 281.69 L54.39 280.52 L65.75 281.46 L76.21 284.51 L85.78 289.68
							 L86.05 289.91" class="st13"/>
			</g>
			<g id="shape148-458" v:mID="148" v:groupContext="shape" v:layerMember="0"
					transform="translate(144.574,-165.709) rotate(-20.3231) scale(-1,1)">
				<title>Forbindelse, kurvet streg.153</title>
				<v:userDefs>
					<v:ud v:nameU="AntiScale" v:val="VT0(1):26"/>
					<v:ud v:nameU="Scale" v:val="VT0(1):26"/>
					<v:ud v:nameU="visVersion" v:val="VT0(14):26"/>
				</v:userDefs>
				<path d="M0 297.88 L33.45 290 L63.9 283.61 L91.37 278.7 L115.84 275.28 L137.32 273.35 L155.8 272.91 L171.3 273.95
							 L183.8 276.48 L193.31 280.5 L199.83 286 L199.95 286.34" class="st13"/>
			</g>
			<g id="shape149-463" v:mID="149" v:groupContext="shape" transform="translate(481.592,305.214) rotate(156.801)">
				<title>Ark.149</title>
				<path d="M0 297.88 L64.76 297.88" class="st15"/>
			</g>
			<g id="shape150-466" v:mID="150" v:groupContext="shape" transform="translate(364.252,-255.118)">
				<title>Rektangel.195</title>
				<desc>Basisprofil</desc>
				<v:userDefs>
					<v:ud v:nameU="visVersion" v:val="VT0(15):26"/>
				</v:userDefs>
				<v:textBlock v:margins="rect(4,4,4,4)" v:tabSpace="42.5197"/>
				<v:textRect cx="31.1811" cy="286.539" width="62.37" height="22.6772"/>
				<g id="shadow150-467" v:groupContext="shadow" v:shadowOffsetX="2.12132" v:shadowOffsetY="-2.12132" v:shadowType="1"
						transform="matrix(1,0,0,1,2.12132,2.12132)" class="st16">
					<rect x="0" y="275.201" width="62.3622" height="22.6772" class="st17"/>
				</g>
				<rect x="0" y="275.201" width="62.3622" height="22.6772" class="st1"/>
				<text x="12.73" y="288.94" class="st18" v:langID="1030"><v:paragraph v:horizAlign="1"/><v:tabList/>Basisprofil</text>			</g>
			<g id="shape151-472" v:mID="151" v:groupContext="shape" transform="translate(375.874,-204.094)">
				<title>Rektangel.150</title>
				<desc>API-profiler der bruger basisprofilen</desc>
				<v:userDefs>
					<v:ud v:nameU="visVersion" v:val="VT0(15):26"/>
				</v:userDefs>
				<v:textBlock v:margins="rect(4,4,4,4)" v:tabSpace="42.5197"/>
				<v:textRect cx="67.8898" cy="286.539" width="135.78" height="22.6772"/>
				<g id="shadow151-473" v:groupContext="shadow" v:shadowOffsetX="2.12132" v:shadowOffsetY="-2.12132" v:shadowType="1"
						transform="matrix(1,0,0,1,2.12132,2.12132)" class="st16">
					<rect x="0" y="275.201" width="135.78" height="22.6772" class="st17"/>
				</g>
				<rect x="0" y="275.201" width="135.78" height="22.6772" class="st1"/>
				<text x="4.75" y="288.94" class="st18" v:langID="1030"><v:paragraph v:horizAlign="1"/><v:tabList/>API-profiler der bruger basisprofilen</text>			</g>
			<g id="shape152-478" v:mID="152" v:groupContext="shape" transform="translate(511.729,383.804) rotate(166.811)">
				<title>Ark.152</title>
				<path d="M0 297.88 L397.56 297.88" class="st15"/>
			</g>
			<g id="shape153-481" v:mID="153" v:groupContext="shape" transform="translate(542.052,374.978) rotate(160.734)">
				<title>Ark.153</title>
				<path d="M0 297.88 L274.91 297.88" class="st15"/>
			</g>
			<g id="shape154-484" v:mID="154" v:groupContext="shape" transform="translate(612.509,339.255) rotate(145.494)">
				<title>Ark.154</title>
				<path d="M0 297.88 L160.12 297.88" class="st15"/>
			</g>
			<g id="shape155-487" v:mID="155" v:groupContext="shape" transform="translate(141.841,170.08) rotate(-87.2269)">
				<title>Ark.155</title>
				<path d="M0 297.88 L90.82 297.88" class="st15"/>
			</g>
		</g>
	</g>
</svg>
